<svg xmlns="http://www.w3.org/2000/svg" viewBox="0 0 1167.506 811.13">
  <defs>
    <style>
      .cls-1 {
        fill: red;
      }

      .cls-2 {
        fill: none;
        stroke: red;
        stroke-width: 30px;
      }
    </style>
  </defs>
  <g id="Groupe_2" data-name="Groupe 2" transform="translate(-966 999.413)">
    <path id="user-friends-solid" class="cls-1" d="M350.434,394.259c112.723-.085,204.077-81.045,204.013-181.112S463.157,32.007,350.434,32.035,146.421,113.081,146.421,213.147c0,48.106,21.219,94.3,59.545,128.288C244.276,375.415,296.261,394.3,350.434,394.259Zm139.588,51.881H475.38c-78.77,34.519-171.122,34.519-249.892,0H209.87C93.833,446.141.062,529.934,0,632.912v46.221c.034,42.908,39.518,77.357,87.853,77.35H613.016c48.35,0,87.827-34.442,87.853-77.35V632.912C700.789,529.934,606.025,446.126,490.023,446.141ZM875.6,394.259c96.62-.073,174.784-69.871,174.729-155.643S972.218,83.892,875.6,83.916,700.869,153.787,700.869,239.56C700.935,325.376,778.928,394.273,875.6,394.259Zm87.853,51.881h-6.833c-25.358,7.767-52.563,13.206-81.02,13.206s-55.669-5.441-81.02-13.206h-6.833c-37.215,0-71.427,10.091-101.519,25.469,44.511,42.555,72.234,98.843,72.234,161.3V695.17c0,3.56-.794,6.978-.976,10.376h322.126c48.35,0,87.828-35.385,87.853-78.293,0-48.1-21.219-94.3-59.545-128.288S1017.624,446.1,963.451,446.141Z" transform="translate(966 -944.767)"/>
    <g id="Groupe_1" data-name="Groupe 1" transform="translate(1952.27 -999.293)">
      <line id="Ligne_1" data-name="Ligne 1" class="cls-2" y1="0.505" x2="181.194" transform="translate(0 87.82)"/>
      <line id="Ligne_2" data-name="Ligne 2" class="cls-2" x1="1.408" y2="176.551" transform="translate(92.288)"/>
    </g>
  </g>
</svg>
